<svg xmlns="http://www.w3.org/2000/svg" xmlns:xlink="http://www.w3.org/1999/xlink" width="150" zoomAndPan="magnify" viewBox="0 0 375 374.999991" height="150" preserveAspectRatio="xMidYMid meet" version="1.0"><defs><g/><clipPath id="496c6c40a3"><path d="M 20.160156 146.203125 L 354.839844 146.203125 L 354.839844 186.414062 L 20.160156 186.414062 Z M 20.160156 146.203125 " clip-rule="nonzero"/></clipPath></defs><g fill="#231f20" fill-opacity="1"><g transform="translate(75.739245, 289.396622)"><g><path d="M 15 -240 C 21.300781 -228 24.601562 -220.199219 29.101562 -204.300781 L 85.5 0 L 145.5 0 C 142.800781 -8.699219 143.398438 -12.898438 145.5 -21.300781 L 196.5 -207.601562 C 199.800781 -218.699219 201 -225.300781 208.5 -240 L 196.800781 -240 C 195.601562 -225.898438 193.199219 -218.699219 190.199219 -207.300781 L 136.5 -10.5 L 82.800781 -204.300781 C 78.601562 -218.699219 76.800781 -225 75.898438 -240 Z M 15 -240 "/></g></g></g><g clip-path="url(#496c6c40a3)"><path fill="#ffffff" d="M 20.160156 146.203125 L 354.839844 146.203125 L 354.839844 186.414062 L 20.160156 186.414062 Z M 20.160156 146.203125 " fill-opacity="1" fill-rule="nonzero"/></g><g fill="#231f20" fill-opacity="1"><g transform="translate(52.5516, 173.809589)"><g><path d="M 7.4375 0 L 5.1875 0 L 0.0625 -12.875 L 2.390625 -12.875 L 6.359375 -2.40625 L 10.375 -12.875 L 12.640625 -12.875 Z M 7.4375 0 "/></g></g></g><g fill="#231f20" fill-opacity="1"><g transform="translate(79.961297, 173.809589)"><g><path d="M 10.890625 -10.921875 L 3.859375 -10.921875 L 3.859375 -7.453125 L 10.15625 -7.453125 L 10.15625 -5.5 L 3.859375 -5.5 L 3.859375 -1.953125 L 11.109375 -1.953125 L 11.109375 0 L 1.6875 0 L 1.6875 -12.875 L 10.890625 -12.875 Z M 10.890625 -10.921875 "/></g></g></g><g fill="#231f20" fill-opacity="1"><g transform="translate(106.745849, 173.809589)"><g><path d="M 3.859375 -1.96875 L 9.4375 -1.96875 L 9.4375 0 L 1.6875 0 L 1.6875 -12.875 L 3.859375 -12.875 Z M 3.859375 -1.96875 "/></g></g></g><g fill="#231f20" fill-opacity="1"><g transform="translate(131.28721, 173.809589)"><g><path d="M 2.59375 -11.0625 C 3.90625 -12.300781 5.519531 -12.921875 7.4375 -12.921875 C 9.363281 -12.921875 10.984375 -12.300781 12.296875 -11.0625 C 13.609375 -9.820312 14.265625 -8.28125 14.265625 -6.4375 C 14.265625 -4.59375 13.609375 -3.039062 12.296875 -1.78125 C 10.984375 -0.53125 9.363281 0.09375 7.4375 0.09375 C 5.519531 0.09375 3.90625 -0.53125 2.59375 -1.78125 C 1.28125 -3.039062 0.625 -4.59375 0.625 -6.4375 C 0.625 -8.28125 1.28125 -9.820312 2.59375 -11.0625 Z M 7.46875 -10.984375 C 6.1875 -10.984375 5.09375 -10.539062 4.1875 -9.65625 C 3.28125 -8.78125 2.828125 -7.707031 2.828125 -6.4375 C 2.828125 -5.164062 3.285156 -4.082031 4.203125 -3.1875 C 5.117188 -2.300781 6.207031 -1.859375 7.46875 -1.859375 C 8.726562 -1.859375 9.804688 -2.300781 10.703125 -3.1875 C 11.597656 -4.082031 12.046875 -5.164062 12.046875 -6.4375 C 12.046875 -7.707031 11.597656 -8.78125 10.703125 -9.65625 C 9.804688 -10.539062 8.726562 -10.984375 7.46875 -10.984375 Z M 7.46875 -10.984375 "/></g></g></g><g fill="#231f20" fill-opacity="1"><g transform="translate(160.903316, 173.809589)"><g><path d="M 7.390625 -12.921875 C 8.296875 -12.921875 9.179688 -12.742188 10.046875 -12.390625 C 10.910156 -12.046875 11.65625 -11.5625 12.28125 -10.9375 L 11.015625 -9.359375 C 10.546875 -9.859375 9.992188 -10.253906 9.359375 -10.546875 C 8.722656 -10.847656 8.082031 -11 7.4375 -11 C 6.144531 -11 5.050781 -10.5625 4.15625 -9.6875 C 3.269531 -8.8125 2.828125 -7.738281 2.828125 -6.46875 C 2.828125 -5.195312 3.269531 -4.125 4.15625 -3.25 C 5.050781 -2.375 6.144531 -1.9375 7.4375 -1.9375 C 8.769531 -1.9375 9.960938 -2.441406 11.015625 -3.453125 L 12.296875 -2.015625 C 11.640625 -1.367188 10.867188 -0.851562 9.984375 -0.46875 C 9.097656 -0.09375 8.207031 0.09375 7.3125 0.09375 C 5.425781 0.09375 3.835938 -0.53125 2.546875 -1.78125 C 1.265625 -3.039062 0.625 -4.597656 0.625 -6.453125 C 0.625 -8.285156 1.273438 -9.820312 2.578125 -11.0625 C 3.890625 -12.300781 5.492188 -12.921875 7.390625 -12.921875 Z M 7.390625 -12.921875 "/></g></g></g><g fill="#231f20" fill-opacity="1"><g transform="translate(188.441713, 173.809589)"><g><path d="M 3.859375 0 L 1.6875 0 L 1.6875 -12.875 L 3.859375 -12.875 Z M 3.859375 0 "/></g></g></g><g fill="#231f20" fill-opacity="1"><g transform="translate(208.717358, 173.809589)"><g><path d="M 10.484375 -10.921875 L 6.40625 -10.921875 L 6.40625 0 L 4.234375 0 L 4.234375 -10.921875 L 0.171875 -10.921875 L 0.171875 -12.875 L 10.484375 -12.875 Z M 10.484375 -10.921875 "/></g></g></g><g fill="#231f20" fill-opacity="1"><g transform="translate(234.086126, 173.809589)"><g><path d="M 6.96875 -4.28125 L 6.96875 0 L 4.8125 0 L 4.8125 -4.21875 L 0.015625 -12.875 L 2.203125 -12.875 L 5.890625 -6.609375 L 9.484375 -12.875 L 11.703125 -12.875 Z M 6.96875 -4.28125 "/></g></g></g><g fill="#231f20" fill-opacity="1"><g transform="translate(260.521313, 173.809589)"><g/></g></g><g fill="#231f20" fill-opacity="1"><g transform="translate(279.987941, 173.809589)"><g><path d="M 7.390625 -12.921875 C 8.296875 -12.921875 9.179688 -12.742188 10.046875 -12.390625 C 10.910156 -12.046875 11.65625 -11.5625 12.28125 -10.9375 L 11.015625 -9.359375 C 10.546875 -9.859375 9.992188 -10.253906 9.359375 -10.546875 C 8.722656 -10.847656 8.082031 -11 7.4375 -11 C 6.144531 -11 5.050781 -10.5625 4.15625 -9.6875 C 3.269531 -8.8125 2.828125 -7.738281 2.828125 -6.46875 C 2.828125 -5.195312 3.269531 -4.125 4.15625 -3.25 C 5.050781 -2.375 6.144531 -1.9375 7.4375 -1.9375 C 8.769531 -1.9375 9.960938 -2.441406 11.015625 -3.453125 L 12.296875 -2.015625 C 11.640625 -1.367188 10.867188 -0.851562 9.984375 -0.46875 C 9.097656 -0.09375 8.207031 0.09375 7.3125 0.09375 C 5.425781 0.09375 3.835938 -0.53125 2.546875 -1.78125 C 1.265625 -3.039062 0.625 -4.597656 0.625 -6.453125 C 0.625 -8.285156 1.273438 -9.820312 2.578125 -11.0625 C 3.890625 -12.300781 5.492188 -12.921875 7.390625 -12.921875 Z M 7.390625 -12.921875 "/></g></g></g><g fill="#231f20" fill-opacity="1"><g transform="translate(307.526338, 173.809589)"><g><path d="M 2.59375 -11.0625 C 3.90625 -12.300781 5.519531 -12.921875 7.4375 -12.921875 C 9.363281 -12.921875 10.984375 -12.300781 12.296875 -11.0625 C 13.609375 -9.820312 14.265625 -8.28125 14.265625 -6.4375 C 14.265625 -4.59375 13.609375 -3.039062 12.296875 -1.78125 C 10.984375 -0.53125 9.363281 0.09375 7.4375 0.09375 C 5.519531 0.09375 3.90625 -0.53125 2.59375 -1.78125 C 1.28125 -3.039062 0.625 -4.59375 0.625 -6.4375 C 0.625 -8.28125 1.28125 -9.820312 2.59375 -11.0625 Z M 7.46875 -10.984375 C 6.1875 -10.984375 5.09375 -10.539062 4.1875 -9.65625 C 3.28125 -8.78125 2.828125 -7.707031 2.828125 -6.4375 C 2.828125 -5.164062 3.285156 -4.082031 4.203125 -3.1875 C 5.117188 -2.300781 6.207031 -1.859375 7.46875 -1.859375 C 8.726562 -1.859375 9.804688 -2.300781 10.703125 -3.1875 C 11.597656 -4.082031 12.046875 -5.164062 12.046875 -6.4375 C 12.046875 -7.707031 11.597656 -8.78125 10.703125 -9.65625 C 9.804688 -10.539062 8.726562 -10.984375 7.46875 -10.984375 Z M 7.46875 -10.984375 "/></g></g></g></svg>